<?xml version="1.0" encoding="UTF-8" standalone="no"?>
<svg width="140px" height="146px" viewBox="0 0 140 146" version="1.1" xmlns="http://www.w3.org/2000/svg" xmlns:xlink="http://www.w3.org/1999/xlink">
  <title>Ruby Talk White Logo</title>
  <desc>Created by Rafael Masoni (@rmasoni) with Sketch.</desc>
  <g id="rubytalk-logo-white" fill-rule="evenodd" transform="translate(-698, -96)" fill="#fff">
    <path d="M776.147783,193.32567 L768,206 L759.852217,193.32567 C736.668268,189.445483 719,169.286064 719,145 C719,117.938047 740.938047,96 768,96 C795.061953,96 817,117.938047 817,145 C817,169.286064 799.331732,189.445483 776.147783,193.32567 L776.147783,193.32567 Z M722.545909,177.716837 C720.91627,178.665593 719.387133,179.665453 717.967645,180.711472 L717.967645,180.711472 L723.417449,185.124641 C724.420698,184.323416 725.514749,183.551447 726.692755,182.812027 C727.83735,184.061742 729.037911,185.259352 730.290469,186.400888 C725.679853,189.30463 723,192.773655 723,196.5 C723,206.717268 743.147186,215 768,215 C792.852814,215 813,206.717268 813,196.5 C813,192.773655 810.320147,189.30463 805.709534,186.400885 C806.962089,185.259352 808.16265,184.061742 809.307245,182.812027 C810.679587,183.673429 811.937988,184.579004 813.071624,185.523548 L818.542723,181.09314 C816.981393,179.908131 815.280887,178.780376 813.454091,177.716837 C814.223892,176.649216 814.957006,175.553384 815.651586,174.431187 C829.399484,181.552367 838,191.716601 838,203 C838,224.539105 806.659932,242 768,242 C729.340068,242 698,224.539105 698,203 C698,191.716601 706.600516,181.552367 720.348414,174.431187 C721.042994,175.553384 721.776108,176.649216 722.545909,177.716837 L722.545909,177.716837 Z M712.637912,185.402856 C708.392032,189.939503 706,195.068816 706,200.5 C706,201.770229 706.13084,203.023945 706.385636,204.25743 L706.385636,204.25743 L716.626753,201.893082 C716.214165,200.624483 716,199.324266 716,198 C716,195.279992 716.903524,192.66144 718.574149,190.209932 L712.637912,185.402856 L712.637912,185.402856 Z M709.007416,210.836273 C713.648525,218.575027 723.360506,225.080106 736.02582,229.207357 L736.02582,229.207357 L740.845855,219.32482 C731.932825,216.695907 724.794523,212.811624 720.495876,208.183953 L709.007416,210.836273 L709.007416,210.836273 Z M743.872478,231.368701 C751.288539,233.063074 759.44177,234 768,234 C776.551893,234 784.699385,233.064461 792.111046,231.372464 L792.111046,231.372464 L787.17202,221.245961 C781.239488,222.377846 774.770868,223 768,223 C761.222758,223 754.748334,222.376674 748.811228,221.242763 L743.872478,231.368701 L743.872478,231.368701 Z M799.958379,229.212505 C812.629389,225.086176 822.346437,218.580325 826.990356,210.839987 L826.990356,210.839987 L815.50089,208.187434 C811.199323,212.816342 804.056391,216.701217 795.138135,219.32954 L799.958379,229.212505 L799.958379,229.212505 Z M829.61353,204.261465 C829.868874,203.02668 830,201.771614 830,200.5 C830,195.249976 827.764882,190.282021 823.780751,185.85879 L823.780748,185.858787 L817.766519,190.729019 C819.218958,193.029834 820,195.471066 820,198 C820,199.325634 819.785392,200.62717 819.371968,201.897014 L829.61353,204.261465 L829.61353,204.261465 Z M752.033708,128 L783.966292,128 L797,140.307692 L768,168 L739,140.307692 L752.033708,128 Z" id="logo"></path>
  </g>
</svg>
